{
    "asset" : {
        "generator" : "Khronos glTF Blender I/O v3.2.40",
        "version" : "2.0"
    },
    "scene" : 0,
    "scenes" : [
        {
            "name" : "Scene",
            "nodes" : [
                0,
                1,
                2,
                3,
                4,
                5,
                6,
                7
            ]
        }
    ],
    "nodes" : [
        {
            "mesh" : 0,
            "name" : "cl.002",
            "translation" : [
                9,
                1,
                0
            ]
        },
        {
            "mesh" : 1,
            "name" : "g3.002",
            "translation" : [
                9,
                0,
                0
            ]
        },
        {
            "mesh" : 2,
            "name" : "we3.004",
            "translation" : [
                8,
                1,
                0
            ]
        },
        {
            "mesh" : 3,
            "name" : "we3.005",
            "rotation" : [
                0,
                1,
                0,
                7.549790126404332e-08
            ],
            "translation" : [
                10,
                1,
                0
            ]
        },
        {
            "mesh" : 4,
            "name" : "we3.006",
            "rotation" : [
                0,
                -0.7071068286895752,
                0,
                0.7071068286895752
            ],
            "translation" : [
                9,
                1,
                -1
            ]
        },
        {
            "mesh" : 5,
            "name" : "we3.007",
            "rotation" : [
                0,
                0.7071068286895752,
                0,
                0.7071068286895752
            ],
            "translation" : [
                9,
                1,
                1
            ]
        },
        {
            "mesh" : 6,
            "name" : "Suzanne",
            "translation" : [
                9,
                1.2999999523162842,
                -0.699999988079071
            ]
        },
        {
            "mesh" : 7,
            "name" : "cs.001",
            "translation" : [
                9,
                0.5,
                -0.699999988079071
            ]
        }
    ],
    "materials" : [
        {
            "doubleSided" : true,
            "name" : "brick5",
            "pbrMetallicRoughness" : {
                "baseColorTexture" : {
                    "index" : 0
                },
                "metallicFactor" : 0,
                "roughnessFactor" : 0.5
            }
        },
        {
            "doubleSided" : true,
            "name" : "cobblestones2",
            "pbrMetallicRoughness" : {
                "baseColorTexture" : {
                    "index" : 1
                },
                "metallicFactor" : 0,
                "roughnessFactor" : 0.5
            }
        },
        {
            "doubleSided" : true,
            "name" : "brick3",
            "pbrMetallicRoughness" : {
                "baseColorTexture" : {
                    "index" : 2
                },
                "metallicFactor" : 0,
                "roughnessFactor" : 0.5
            }
        },
        {
            "doubleSided" : true,
            "name" : "metal1",
            "pbrMetallicRoughness" : {
                "baseColorTexture" : {
                    "index" : 3
                },
                "metallicFactor" : 0,
                "roughnessFactor" : 0.5
            }
        }
    ],
    "meshes" : [
        {
            "name" : "Cube.003",
            "primitives" : [
                {
                    "attributes" : {
                        "POSITION" : 0,
                        "NORMAL" : 1,
                        "TEXCOORD_0" : 2
                    },
                    "indices" : 3,
                    "material" : 0
                }
            ]
        },
        {
            "name" : "Plane.023",
            "primitives" : [
                {
                    "attributes" : {
                        "POSITION" : 4,
                        "NORMAL" : 5,
                        "TEXCOORD_0" : 6
                    },
                    "indices" : 7,
                    "material" : 1
                }
            ]
        },
        {
            "name" : "Plane.026",
            "primitives" : [
                {
                    "attributes" : {
                        "POSITION" : 8,
                        "NORMAL" : 9,
                        "TEXCOORD_0" : 10
                    },
                    "indices" : 7,
                    "material" : 2
                }
            ]
        },
        {
            "name" : "Plane.027",
            "primitives" : [
                {
                    "attributes" : {
                        "POSITION" : 11,
                        "NORMAL" : 12,
                        "TEXCOORD_0" : 13
                    },
                    "indices" : 7,
                    "material" : 2
                }
            ]
        },
        {
            "name" : "Plane.028",
            "primitives" : [
                {
                    "attributes" : {
                        "POSITION" : 14,
                        "NORMAL" : 15,
                        "TEXCOORD_0" : 16
                    },
                    "indices" : 7,
                    "material" : 2
                }
            ]
        },
        {
            "name" : "Plane.029",
            "primitives" : [
                {
                    "attributes" : {
                        "POSITION" : 17,
                        "NORMAL" : 18,
                        "TEXCOORD_0" : 19
                    },
                    "indices" : 7,
                    "material" : 2
                }
            ]
        },
        {
            "name" : "Suzanne",
            "primitives" : [
                {
                    "attributes" : {
                        "POSITION" : 20,
                        "NORMAL" : 21,
                        "TEXCOORD_0" : 22
                    },
                    "indices" : 23,
                    "material" : 3
                }
            ]
        },
        {
            "name" : "Cube.004",
            "primitives" : [
                {
                    "attributes" : {
                        "POSITION" : 24,
                        "NORMAL" : 25,
                        "TEXCOORD_0" : 26
                    },
                    "indices" : 3,
                    "material" : 0
                }
            ]
        }
    ],
    "textures" : [
        {
            "sampler" : 0,
            "source" : 0
        },
        {
            "sampler" : 0,
            "source" : 1
        },
        {
            "sampler" : 0,
            "source" : 2
        },
        {
            "sampler" : 0,
            "source" : 3
        }
    ],
    "images" : [
        {
            "mimeType" : "image/jpeg",
            "name" : "brick5",
            "uri" : "brick5.jpg"
        },
        {
            "mimeType" : "image/jpeg",
            "name" : "cobblestones2",
            "uri" : "cobblestones2.jpg"
        },
        {
            "mimeType" : "image/jpeg",
            "name" : "brick3",
            "uri" : "brick3.jpg"
        },
        {
            "mimeType" : "image/jpeg",
            "name" : "metal1",
            "uri" : "metal1.jpg"
        }
    ],
    "accessors" : [
        {
            "bufferView" : 0,
            "componentType" : 5126,
            "count" : 24,
            "max" : [
                0.09989041090011597,
                1,
                0.09989041090011597
            ],
            "min" : [
                -0.09989041090011597,
                -1,
                -0.09989041090011597
            ],
            "type" : "VEC3"
        },
        {
            "bufferView" : 1,
            "componentType" : 5126,
            "count" : 24,
            "type" : "VEC3"
        },
        {
            "bufferView" : 2,
            "componentType" : 5126,
            "count" : 24,
            "type" : "VEC2"
        },
        {
            "bufferView" : 3,
            "componentType" : 5123,
            "count" : 36,
            "type" : "SCALAR"
        },
        {
            "bufferView" : 4,
            "componentType" : 5126,
            "count" : 4,
            "max" : [
                1,
                0,
                1
            ],
            "min" : [
                -1,
                0,
                -1
            ],
            "type" : "VEC3"
        },
        {
            "bufferView" : 5,
            "componentType" : 5126,
            "count" : 4,
            "type" : "VEC3"
        },
        {
            "bufferView" : 6,
            "componentType" : 5126,
            "count" : 4,
            "type" : "VEC2"
        },
        {
            "bufferView" : 7,
            "componentType" : 5123,
            "count" : 6,
            "type" : "SCALAR"
        },
        {
            "bufferView" : 8,
            "componentType" : 5126,
            "count" : 4,
            "max" : [
                7.549790126404332e-08,
                1,
                1
            ],
            "min" : [
                -7.549790126404332e-08,
                -1,
                -1
            ],
            "type" : "VEC3"
        },
        {
            "bufferView" : 9,
            "componentType" : 5126,
            "count" : 4,
            "type" : "VEC3"
        },
        {
            "bufferView" : 10,
            "componentType" : 5126,
            "count" : 4,
            "type" : "VEC2"
        },
        {
            "bufferView" : 11,
            "componentType" : 5126,
            "count" : 4,
            "max" : [
                7.549790126404332e-08,
                1,
                1
            ],
            "min" : [
                -7.549790126404332e-08,
                -1,
                -1
            ],
            "type" : "VEC3"
        },
        {
            "bufferView" : 12,
            "componentType" : 5126,
            "count" : 4,
            "type" : "VEC3"
        },
        {
            "bufferView" : 13,
            "componentType" : 5126,
            "count" : 4,
            "type" : "VEC2"
        },
        {
            "bufferView" : 14,
            "componentType" : 5126,
            "count" : 4,
            "max" : [
                7.549790126404332e-08,
                1,
                1
            ],
            "min" : [
                -7.549790126404332e-08,
                -1,
                -1
            ],
            "type" : "VEC3"
        },
        {
            "bufferView" : 15,
            "componentType" : 5126,
            "count" : 4,
            "type" : "VEC3"
        },
        {
            "bufferView" : 16,
            "componentType" : 5126,
            "count" : 4,
            "type" : "VEC2"
        },
        {
            "bufferView" : 17,
            "componentType" : 5126,
            "count" : 4,
            "max" : [
                7.549790126404332e-08,
                1,
                1
            ],
            "min" : [
                -7.549790126404332e-08,
                -1,
                -1
            ],
            "type" : "VEC3"
        },
        {
            "bufferView" : 18,
            "componentType" : 5126,
            "count" : 4,
            "type" : "VEC3"
        },
        {
            "bufferView" : 19,
            "componentType" : 5126,
            "count" : 4,
            "type" : "VEC2"
        },
        {
            "bufferView" : 20,
            "componentType" : 5126,
            "count" : 1966,
            "max" : [
                0.2734374701976776,
                0.19687499105930328,
                0.17031249403953552
            ],
            "min" : [
                -0.2734374701976776,
                -0.19687499105930328,
                -0.17031249403953552
            ],
            "type" : "VEC3"
        },
        {
            "bufferView" : 21,
            "componentType" : 5126,
            "count" : 1966,
            "type" : "VEC3"
        },
        {
            "bufferView" : 22,
            "componentType" : 5126,
            "count" : 1966,
            "type" : "VEC2"
        },
        {
            "bufferView" : 23,
            "componentType" : 5123,
            "count" : 2904,
            "type" : "SCALAR"
        },
        {
            "bufferView" : 24,
            "componentType" : 5126,
            "count" : 24,
            "max" : [
                0.09989041090011597,
                0.5,
                0.09989041090011597
            ],
            "min" : [
                -0.09989041090011597,
                -0.5,
                -0.09989041090011597
            ],
            "type" : "VEC3"
        },
        {
            "bufferView" : 25,
            "componentType" : 5126,
            "count" : 24,
            "type" : "VEC3"
        },
        {
            "bufferView" : 26,
            "componentType" : 5126,
            "count" : 24,
            "type" : "VEC2"
        }
    ],
    "bufferViews" : [
        {
            "buffer" : 0,
            "byteLength" : 288,
            "byteOffset" : 0
        },
        {
            "buffer" : 0,
            "byteLength" : 288,
            "byteOffset" : 288
        },
        {
            "buffer" : 0,
            "byteLength" : 192,
            "byteOffset" : 576
        },
        {
            "buffer" : 0,
            "byteLength" : 72,
            "byteOffset" : 768
        },
        {
            "buffer" : 0,
            "byteLength" : 48,
            "byteOffset" : 840
        },
        {
            "buffer" : 0,
            "byteLength" : 48,
            "byteOffset" : 888
        },
        {
            "buffer" : 0,
            "byteLength" : 32,
            "byteOffset" : 936
        },
        {
            "buffer" : 0,
            "byteLength" : 12,
            "byteOffset" : 968
        },
        {
            "buffer" : 0,
            "byteLength" : 48,
            "byteOffset" : 980
        },
        {
            "buffer" : 0,
            "byteLength" : 48,
            "byteOffset" : 1028
        },
        {
            "buffer" : 0,
            "byteLength" : 32,
            "byteOffset" : 1076
        },
        {
            "buffer" : 0,
            "byteLength" : 48,
            "byteOffset" : 1108
        },
        {
            "buffer" : 0,
            "byteLength" : 48,
            "byteOffset" : 1156
        },
        {
            "buffer" : 0,
            "byteLength" : 32,
            "byteOffset" : 1204
        },
        {
            "buffer" : 0,
            "byteLength" : 48,
            "byteOffset" : 1236
        },
        {
            "buffer" : 0,
            "byteLength" : 48,
            "byteOffset" : 1284
        },
        {
            "buffer" : 0,
            "byteLength" : 32,
            "byteOffset" : 1332
        },
        {
            "buffer" : 0,
            "byteLength" : 48,
            "byteOffset" : 1364
        },
        {
            "buffer" : 0,
            "byteLength" : 48,
            "byteOffset" : 1412
        },
        {
            "buffer" : 0,
            "byteLength" : 32,
            "byteOffset" : 1460
        },
        {
            "buffer" : 0,
            "byteLength" : 23592,
            "byteOffset" : 1492
        },
        {
            "buffer" : 0,
            "byteLength" : 23592,
            "byteOffset" : 25084
        },
        {
            "buffer" : 0,
            "byteLength" : 15728,
            "byteOffset" : 48676
        },
        {
            "buffer" : 0,
            "byteLength" : 5808,
            "byteOffset" : 64404
        },
        {
            "buffer" : 0,
            "byteLength" : 288,
            "byteOffset" : 70212
        },
        {
            "buffer" : 0,
            "byteLength" : 288,
            "byteOffset" : 70500
        },
        {
            "buffer" : 0,
            "byteLength" : 192,
            "byteOffset" : 70788
        }
    ],
    "samplers" : [
        {
            "magFilter" : 9729,
            "minFilter" : 9987
        }
    ],
    "buffers" : [
        {
            "byteLength" : 70980,
            "uri" : "r2.bin"
        }
    ]
}
