{
    "asset" : {
        "generator" : "Khronos glTF Blender I/O v3.2.40",
        "version" : "2.0"
    },
    "scene" : 0,
    "scenes" : [
        {
            "name" : "Scene",
            "nodes" : [
                0,
                1,
                2,
                3,
                4,
                5,
                6
            ]
        }
    ],
    "nodes" : [
        {
            "mesh" : 0,
            "name" : "cl.003",
            "translation" : [
                12,
                1,
                0
            ]
        },
        {
            "mesh" : 1,
            "name" : "g3.003",
            "translation" : [
                12,
                0,
                0
            ]
        },
        {
            "mesh" : 2,
            "name" : "we3.008",
            "translation" : [
                11,
                1,
                0
            ]
        },
        {
            "mesh" : 3,
            "name" : "we3.009",
            "rotation" : [
                0,
                1,
                0,
                7.549790126404332e-08
            ],
            "translation" : [
                13,
                1,
                0
            ]
        },
        {
            "mesh" : 4,
            "name" : "we3.010",
            "rotation" : [
                0,
                -0.7071068286895752,
                0,
                0.7071068286895752
            ],
            "translation" : [
                12,
                1,
                -1
            ]
        },
        {
            "mesh" : 5,
            "name" : "Cube",
            "rotation" : [
                -0.3535533845424652,
                -0.1464465856552124,
                0.3535533845424652,
                0.8535534143447876
            ],
            "translation" : [
                12,
                1.399999976158142,
                -0.7000000476837158
            ]
        },
        {
            "mesh" : 6,
            "name" : "cs.002",
            "translation" : [
                12,
                0.5,
                -0.699999988079071
            ]
        }
    ],
    "materials" : [
        {
            "doubleSided" : true,
            "name" : "brick5",
            "pbrMetallicRoughness" : {
                "baseColorTexture" : {
                    "index" : 0
                },
                "metallicFactor" : 0,
                "roughnessFactor" : 0.5
            }
        },
        {
            "doubleSided" : true,
            "name" : "cobblestones2",
            "pbrMetallicRoughness" : {
                "baseColorTexture" : {
                    "index" : 1
                },
                "metallicFactor" : 0,
                "roughnessFactor" : 0.5
            }
        },
        {
            "doubleSided" : true,
            "name" : "brick3",
            "pbrMetallicRoughness" : {
                "baseColorTexture" : {
                    "index" : 2
                },
                "metallicFactor" : 0,
                "roughnessFactor" : 0.5
            }
        },
        {
            "doubleSided" : true,
            "name" : "rust2",
            "pbrMetallicRoughness" : {
                "baseColorTexture" : {
                    "index" : 3
                },
                "metallicFactor" : 0,
                "roughnessFactor" : 0.5
            }
        }
    ],
    "meshes" : [
        {
            "name" : "Cube.006",
            "primitives" : [
                {
                    "attributes" : {
                        "POSITION" : 0,
                        "NORMAL" : 1,
                        "TEXCOORD_0" : 2
                    },
                    "indices" : 3,
                    "material" : 0
                }
            ]
        },
        {
            "name" : "Plane.030",
            "primitives" : [
                {
                    "attributes" : {
                        "POSITION" : 4,
                        "NORMAL" : 5,
                        "TEXCOORD_0" : 6
                    },
                    "indices" : 7,
                    "material" : 1
                }
            ]
        },
        {
            "name" : "Plane.033",
            "primitives" : [
                {
                    "attributes" : {
                        "POSITION" : 8,
                        "NORMAL" : 9,
                        "TEXCOORD_0" : 10
                    },
                    "indices" : 7,
                    "material" : 2
                }
            ]
        },
        {
            "name" : "Plane.034",
            "primitives" : [
                {
                    "attributes" : {
                        "POSITION" : 11,
                        "NORMAL" : 12,
                        "TEXCOORD_0" : 13
                    },
                    "indices" : 7,
                    "material" : 2
                }
            ]
        },
        {
            "name" : "Plane.035",
            "primitives" : [
                {
                    "attributes" : {
                        "POSITION" : 14,
                        "NORMAL" : 15,
                        "TEXCOORD_0" : 16
                    },
                    "indices" : 7,
                    "material" : 2
                }
            ]
        },
        {
            "name" : "Cube.007",
            "primitives" : [
                {
                    "attributes" : {
                        "POSITION" : 17,
                        "NORMAL" : 18,
                        "TEXCOORD_0" : 19
                    },
                    "indices" : 3,
                    "material" : 3
                }
            ]
        },
        {
            "name" : "Cube.005",
            "primitives" : [
                {
                    "attributes" : {
                        "POSITION" : 20,
                        "NORMAL" : 21,
                        "TEXCOORD_0" : 22
                    },
                    "indices" : 3,
                    "material" : 0
                }
            ]
        }
    ],
    "textures" : [
        {
            "sampler" : 0,
            "source" : 0
        },
        {
            "sampler" : 0,
            "source" : 1
        },
        {
            "sampler" : 0,
            "source" : 2
        },
        {
            "sampler" : 0,
            "source" : 3
        }
    ],
    "images" : [
        {
            "mimeType" : "image/jpeg",
            "name" : "brick5",
            "uri" : "brick5.jpg"
        },
        {
            "mimeType" : "image/jpeg",
            "name" : "cobblestones2",
            "uri" : "cobblestones2.jpg"
        },
        {
            "mimeType" : "image/jpeg",
            "name" : "brick3",
            "uri" : "brick3.jpg"
        },
        {
            "mimeType" : "image/jpeg",
            "name" : "rust2",
            "uri" : "rust2.jpg"
        }
    ],
    "accessors" : [
        {
            "bufferView" : 0,
            "componentType" : 5126,
            "count" : 24,
            "max" : [
                0.09989041090011597,
                1,
                0.09989041090011597
            ],
            "min" : [
                -0.09989041090011597,
                -1,
                -0.09989041090011597
            ],
            "type" : "VEC3"
        },
        {
            "bufferView" : 1,
            "componentType" : 5126,
            "count" : 24,
            "type" : "VEC3"
        },
        {
            "bufferView" : 2,
            "componentType" : 5126,
            "count" : 24,
            "type" : "VEC2"
        },
        {
            "bufferView" : 3,
            "componentType" : 5123,
            "count" : 36,
            "type" : "SCALAR"
        },
        {
            "bufferView" : 4,
            "componentType" : 5126,
            "count" : 4,
            "max" : [
                1,
                0,
                1
            ],
            "min" : [
                -1,
                0,
                -1
            ],
            "type" : "VEC3"
        },
        {
            "bufferView" : 5,
            "componentType" : 5126,
            "count" : 4,
            "type" : "VEC3"
        },
        {
            "bufferView" : 6,
            "componentType" : 5126,
            "count" : 4,
            "type" : "VEC2"
        },
        {
            "bufferView" : 7,
            "componentType" : 5123,
            "count" : 6,
            "type" : "SCALAR"
        },
        {
            "bufferView" : 8,
            "componentType" : 5126,
            "count" : 4,
            "max" : [
                7.549790126404332e-08,
                1,
                1
            ],
            "min" : [
                -7.549790126404332e-08,
                -1,
                -1
            ],
            "type" : "VEC3"
        },
        {
            "bufferView" : 9,
            "componentType" : 5126,
            "count" : 4,
            "type" : "VEC3"
        },
        {
            "bufferView" : 10,
            "componentType" : 5126,
            "count" : 4,
            "type" : "VEC2"
        },
        {
            "bufferView" : 11,
            "componentType" : 5126,
            "count" : 4,
            "max" : [
                7.549790126404332e-08,
                1,
                1
            ],
            "min" : [
                -7.549790126404332e-08,
                -1,
                -1
            ],
            "type" : "VEC3"
        },
        {
            "bufferView" : 12,
            "componentType" : 5126,
            "count" : 4,
            "type" : "VEC3"
        },
        {
            "bufferView" : 13,
            "componentType" : 5126,
            "count" : 4,
            "type" : "VEC2"
        },
        {
            "bufferView" : 14,
            "componentType" : 5126,
            "count" : 4,
            "max" : [
                7.549790126404332e-08,
                1,
                1
            ],
            "min" : [
                -7.549790126404332e-08,
                -1,
                -1
            ],
            "type" : "VEC3"
        },
        {
            "bufferView" : 15,
            "componentType" : 5126,
            "count" : 4,
            "type" : "VEC3"
        },
        {
            "bufferView" : 16,
            "componentType" : 5126,
            "count" : 4,
            "type" : "VEC2"
        },
        {
            "bufferView" : 17,
            "componentType" : 5126,
            "count" : 24,
            "max" : [
                0.09999998658895493,
                0.09999998658895493,
                0.10000000149011612
            ],
            "min" : [
                -0.09999998658895493,
                -0.09999998658895493,
                -0.10000000149011612
            ],
            "type" : "VEC3"
        },
        {
            "bufferView" : 18,
            "componentType" : 5126,
            "count" : 24,
            "type" : "VEC3"
        },
        {
            "bufferView" : 19,
            "componentType" : 5126,
            "count" : 24,
            "type" : "VEC2"
        },
        {
            "bufferView" : 20,
            "componentType" : 5126,
            "count" : 24,
            "max" : [
                0.09989041090011597,
                0.5,
                0.09989041090011597
            ],
            "min" : [
                -0.09989041090011597,
                -0.5,
                -0.09989041090011597
            ],
            "type" : "VEC3"
        },
        {
            "bufferView" : 21,
            "componentType" : 5126,
            "count" : 24,
            "type" : "VEC3"
        },
        {
            "bufferView" : 22,
            "componentType" : 5126,
            "count" : 24,
            "type" : "VEC2"
        }
    ],
    "bufferViews" : [
        {
            "buffer" : 0,
            "byteLength" : 288,
            "byteOffset" : 0
        },
        {
            "buffer" : 0,
            "byteLength" : 288,
            "byteOffset" : 288
        },
        {
            "buffer" : 0,
            "byteLength" : 192,
            "byteOffset" : 576
        },
        {
            "buffer" : 0,
            "byteLength" : 72,
            "byteOffset" : 768
        },
        {
            "buffer" : 0,
            "byteLength" : 48,
            "byteOffset" : 840
        },
        {
            "buffer" : 0,
            "byteLength" : 48,
            "byteOffset" : 888
        },
        {
            "buffer" : 0,
            "byteLength" : 32,
            "byteOffset" : 936
        },
        {
            "buffer" : 0,
            "byteLength" : 12,
            "byteOffset" : 968
        },
        {
            "buffer" : 0,
            "byteLength" : 48,
            "byteOffset" : 980
        },
        {
            "buffer" : 0,
            "byteLength" : 48,
            "byteOffset" : 1028
        },
        {
            "buffer" : 0,
            "byteLength" : 32,
            "byteOffset" : 1076
        },
        {
            "buffer" : 0,
            "byteLength" : 48,
            "byteOffset" : 1108
        },
        {
            "buffer" : 0,
            "byteLength" : 48,
            "byteOffset" : 1156
        },
        {
            "buffer" : 0,
            "byteLength" : 32,
            "byteOffset" : 1204
        },
        {
            "buffer" : 0,
            "byteLength" : 48,
            "byteOffset" : 1236
        },
        {
            "buffer" : 0,
            "byteLength" : 48,
            "byteOffset" : 1284
        },
        {
            "buffer" : 0,
            "byteLength" : 32,
            "byteOffset" : 1332
        },
        {
            "buffer" : 0,
            "byteLength" : 288,
            "byteOffset" : 1364
        },
        {
            "buffer" : 0,
            "byteLength" : 288,
            "byteOffset" : 1652
        },
        {
            "buffer" : 0,
            "byteLength" : 192,
            "byteOffset" : 1940
        },
        {
            "buffer" : 0,
            "byteLength" : 288,
            "byteOffset" : 2132
        },
        {
            "buffer" : 0,
            "byteLength" : 288,
            "byteOffset" : 2420
        },
        {
            "buffer" : 0,
            "byteLength" : 192,
            "byteOffset" : 2708
        }
    ],
    "samplers" : [
        {
            "magFilter" : 9729,
            "minFilter" : 9987
        }
    ],
    "buffers" : [
        {
            "byteLength" : 2900,
            "uri" : "r3.bin"
        }
    ]
}
